<svg xmlns="http://www.w3.org/2000/svg" width="70" height="70" viewBox="0 0 70 70">
    <g fill="#51555C" fill-rule="evenodd">
        <path stroke="#51555C" stroke-width=".5" d="M3.3 66.695h63.4v-1.849H3.3v1.85zm3.468-3.154H63.34v-1.848H6.768v1.848zm2.33-3.154h51.804v-1.849H9.099v1.85zm15.119-3.154h-4.985v-21.86c0-1.38 1.118-2.502 2.492-2.502 1.374 0 2.493 1.123 2.493 2.502v21.86zm13.275 0h-4.984v-21.86c0-1.38 1.118-2.502 2.492-2.502 1.374 0 2.492 1.123 2.492 2.502v21.86zm13.277 0h-4.986v-21.86c0-1.38 1.119-2.502 2.493-2.502 1.374 0 2.493 1.123 2.493 2.502v21.86zM12.567 25.911h44.975v31.322H52.07v-21.86c0-2.1-1.701-3.807-3.793-3.807-2.091 0-3.793 1.708-3.793 3.807v21.86h-5.69v-21.86c0-2.1-1.701-3.807-3.793-3.807s-3.793 1.708-3.793 3.807v21.86h-5.69v-21.86c0-2.1-1.701-3.807-3.793-3.807-2.091 0-3.793 1.708-3.793 3.807v21.86h-5.364V25.911zm-2.06-1.305h49.094V22.81H10.507v1.795zm-3.89-3.1h56.767v-2.17H6.616v2.17zM34.99 3.322c.04-.023.087-.023.127 0l25.645 14.71H9.345l25.646-14.71zm31.83 60.22h-2.18V61.57c0-.652-.53-1.183-1.18-1.183h-1.26v-1.971c0-.653-.528-1.183-1.178-1.183h-2.18V25.911h1.083c.538 0 .976-.44.976-.979v-2.12h2.706c.594 0 1.076-.485 1.076-1.08v-2.62c0-.596-.482-1.08-1.076-1.08h-.224L35.764 2.189c-.438-.251-.98-.252-1.419 0L6.725 18.032h-.333c-.594 0-1.076.484-1.076 1.08v2.62c0 .595.482 1.08 1.076 1.08h2.815v2.12c0 .54.437.979.975.979h1.084v31.322h-2.29c-.65 0-1.178.53-1.178 1.183v1.971H6.647c-.65 0-1.179.53-1.179 1.183v1.971h-2.29c-.65 0-1.178.53-1.178 1.183v2.161C2 67.5 2.498 68 3.11 68h63.78c.612 0 1.11-.5 1.11-1.115v-2.161c0-.653-.529-1.183-1.178-1.183h0z"/>
        <path d="M34.97 12.997c-1.328 0-2.409-1.08-2.409-2.408 0-1.328 1.081-2.408 2.409-2.408 1.327 0 2.407 1.08 2.407 2.408 0 1.327-1.08 2.408-2.407 2.408m0-6.192c-2.087 0-3.784 1.698-3.784 3.784s1.697 3.784 3.784 3.784c2.085 0 3.783-1.698 3.783-3.784s-1.698-3.784-3.783-3.784"/>
    </g>
</svg>
