<svg xmlns="http://www.w3.org/2000/svg" width="70" height="70" viewBox="0 0 70 70">
    <g fill="none" fill-rule="evenodd" stroke="#51555C" stroke-width="2">
        <path stroke-linecap="round" d="M21 43.5h-9c-6.627 0-12-5.373-12-12V30c0-6.627 5.373-12 12-12h1.5" transform="translate(2 1)"/>
        <path stroke-linecap="round" d="M13.5 22.5v-6C13.5 7.387 20.887 0 30 0c7.812 0 14.356 5.43 16.065 12.72M48 43.5h9.75c4.556 0 8.25-3.693 8.25-8.25 0-3.794-2.56-6.988-6.047-7.953-.702-.194-1.44-.297-2.203-.297h-2.562M40.021 15.746c2.055-1.416 4.545-2.246 7.229-2.246C54.292 13.5 60 19.21 60 26.25" transform="translate(2 1)"/>
        <path d="M28.5 33L28.5 43.5 40.5 43.5 40.5 33M34.5 55.5L34.5 31.5M34.5 22.5L34.5 19.5M34.5 28.5L34.5 25.5M40.5 30L40.5 27M28.5 30L28.5 27M21 54L21 51 3 51 3 63 21 63 21 60M48 54L48 51 66 51 66 63 48 63 48 60M25.5 54L25.5 51 43.5 51 43.5 54M43.5 60L43.5 63 25.5 63 25.5 60M4.5 57L61.5 57M12 63L12 67.5M7.5 67.5L16.5 67.5M34.5 63L34.5 67.5M30 67.5L39 67.5M57 63L57 67.5M52.5 67.5L61.5 67.5" transform="translate(2 1)"/>
    </g>
</svg>
