<svg xmlns="http://www.w3.org/2000/svg" width="70" height="70" viewBox="0 0 70 70">
    <g fill="none" fill-rule="evenodd" stroke="#51555C" stroke-width="2">
        <path d="M37.5 12c0-1.656-1.344-3-3-3s-3 1.344-3 3 1.344 3 3 3M31.5 18c0 1.656 1.344 3 3 3s3-1.344 3-3-1.344-3-3-3M34.5 9L34.5 6M34.5 24L34.5 21" transform="translate(1 1)"/>
        <path d="M49.5 15c0-8.285-6.717-15-15-15-8.285 0-15 6.715-15 15s6.715 15 15 15c8.283 0 15-6.715 15-15zM30 46.5c0-8.285-6.715-15-15-15s-15 6.715-15 15 6.715 15 15 15 15-6.715 15-15z" transform="translate(1 1)"/>
        <path d="M20.816 43.2c-1.203-1.632-3.097-2.7-5.25-2.7-3.643 0-6.597 3.022-6.597 6.75 0 3.729 2.954 6.75 6.597 6.75 2.153 0 4.047-1.067 5.25-2.7M6 45L13.5 45 16.5 45M6 49.5L13.5 49.5 16.5 49.5M69 46.5c0-8.285-6.717-15-15-15-8.283 0-15 6.715-15 15s6.717 15 15 15c8.283 0 15-6.715 15-15zM54 45L54 55.5" transform="translate(1 1)"/>
        <path d="M48 39L54 45 60 39M49.5 48L58.5 48M49.5 52.5L58.5 52.5M9.264 27.728c-2.343-2.343-2.343-6.143 0-8.486L13.506 15" transform="translate(1 1)"/>
        <path d="M5.021 15L13.506 15 13.506 23.485M54 14.121c3.313 0 6 2.687 6 6v6" transform="translate(1 1)"/>
        <path d="M66 20.121L60 26.121 54 20.121M39 57c0 3.313-2.687 6-6 6h-6" transform="translate(1 1)"/>
        <path d="M33 69L27 63 33 57" transform="translate(1 1)"/>
    </g>
</svg>
