<svg xmlns="http://www.w3.org/2000/svg" width="70" height="70" viewBox="0 0 70 70">
    <g fill="none" fill-rule="evenodd" stroke="#51555C" stroke-width="2">
        <path d="M49.993 33.5L57.493 33.5 57.493 26 67.993 39.5 57.493 51.5 57.493 44 40.993 44M37.993 44L33.493 44M30.493 44L25.993 44M22.993 44L18.493 44M40.993 33.5L36.493 33.5M33.493 33.5L28.993 33.5M25.993 33.5L10.993 33.5 10.993 41 .493 29 10.993 17 10.993 24.5 16.993 24.5M27.493 23h-6c0-12.426 10.074-22.5 22.5-22.5s22.5 10.074 22.5 22.5h-6" transform="translate(1 10)"/>
        <path d="M48.493 23.75c0 2.071-1.678 3.75-3.75 3.75-2.071 0-3.75-1.679-3.75-3.75 0-2.072 1.679-3.75 3.75-3.75 2.072 0 3.75 1.678 3.75 3.75z" transform="translate(1 10)"/>
        <path stroke-linecap="round" d="M41.493 27.255L39.277 28.839M59.693 14.242L48.493 22.249" transform="translate(1 10)"/>
        <path d="M43.993 6.5L43.993.5M35.554 8.821L32.485 3.665M52.025 8.587L54.944 3.346M29.579 14.968L24.338 12.048" transform="translate(1 10)"/>
    </g>
</svg>
