<svg xmlns="http://www.w3.org/2000/svg" width="70" height="70" viewBox="0 0 70 70">
    <g fill="none" fill-rule="evenodd" stroke="#51555C" stroke-linecap="round" stroke-width="2">
        <path d="M21.421 52.5L.421 52.5 3.421 40.5 18.421 40.5zM42.421 52.5L21.421 52.5 24.421 40.5 39.421 40.5zM63.421 52.5L42.421 52.5 45.421 40.5 60.421 40.5zM31.921 40.5L10.921 40.5 13.921 28.5 28.921 28.5zM52.921 40.5L31.921 40.5 34.921 28.5 49.921 28.5zM42.421 28.5L21.421 28.5 24.421 16.5 39.421 16.5zM51.421 19.5L46.921 19.5M16.921 19.5L12.421 19.5M31.921 0L31.921 4.5M45.71 5.711L42.528 8.893M18.133 5.711L21.314 8.893" transform="translate(3 8)"/>
    </g>
</svg>
